<?xml version="1.0" standalone="no"?><!DOCTYPE svg PUBLIC "-//W3C//DTD SVG 1.1//EN" "http://www.w3.org/Graphics/SVG/1.1/DTD/svg11.dtd"><svg id="narrow-thin" title="None" xmlns="http://www.w3.org/2000/svg" xmlns:xlink="http://www.w3.org/1999/xlink" xml:space="preserve" style="fill-rule:nonzero;clip-rule:evenodd;stroke-linejoin:round;stroke-miterlimit:1.41421;" width="100%" name="narrow-thin" viewBox="0.000 0.000 545.000 1000.000" enable-background="0.000 0.000 545.000 1000.000"><path d="M0 1000C0 1000 5 1000 5 1000C5 1000 545 5 545 5C545 5 545 0 545 0C545 0 540 0 540 0C540 0 0 995 0 995ZM0 0C0 0 0 5 0 5C0 5 540 1000 540 1000C540 1000 545 1000 545 1000C545 1000 545 995 545 995C545 995 5 0 5 0ZM404 764C477 756 496 702 515 672C534 642 476 550 466 640C456 730 399 659 369 697C339 735 326 694 327 475C328 256 278 261 267 204C256 147 127 217 103 228C26 263 6 334 70 362C134 390 86 311 124 280C271 105 267 442 282 516C297 590 268 566 264 678C260 790 331 772 404 764ZM198 734C198 734 307 595 307 595C307 595 298 529 298 529C236 576 155 806 113 670C71 534 -25 529 150 480C150 480 284 426 284 426C284 426 276 399 276 399C178 462 -49 397 41 579C120 740 46 869 198 734Z"/></svg>