<?xml version="1.0" standalone="no"?><!DOCTYPE svg PUBLIC "-//W3C//DTD SVG 1.1//EN" "http://www.w3.org/Graphics/SVG/1.1/DTD/svg11.dtd"><svg id="wide-thin" title="None" xmlns="http://www.w3.org/2000/svg" xmlns:xlink="http://www.w3.org/1999/xlink" xml:space="preserve" style="fill-rule:nonzero;clip-rule:evenodd;stroke-linejoin:round;stroke-miterlimit:1.41421;" width="100%" name="wide-thin" viewBox="0.000 0.000 915.000 1000.000" enable-background="0.000 0.000 915.000 1000.000"><path d="M0 1000C0 1000 5 1000 5 1000C5 1000 915 5 915 5C915 5 915 0 915 0C915 0 910 0 910 0C910 0 0 995 0 995ZM0 0C0 0 0 5 0 5C0 5 910 1000 910 1000C910 1000 915 1000 915 1000C915 1000 915 995 915 995C915 995 5 0 5 0ZM794 764C867 756 886 702 905 672C924 642 866 550 856 640C846 730 789 659 759 697C729 735 716 694 717 475C718 256 697 222 647 194C544 137 357 217 333 228C256 263 22 325 80 362C327 517 322 328 360 297C507 122 497 442 512 516C527 590 498 566 494 678C490 790 721 772 794 764ZM428 734C428 734 537 595 537 595C537 595 558 546 558 546C496 593 185 810 143 674C101 538 89 550 380 480C380 480 514 426 514 426C514 426 506 399 506 399C408 462 95 429 22 617C-33 758 162 971 428 734Z"/></svg>